# xmcd
# 
# Track frame offsets:
#     150
#     14684
#     97035
#     178153
# 
# Disc length: 3668
# 
# Revision: 0
# Processed by: cddbd v1.5.2PL0 Copyright (c) Steve Scherf et al.
# Submitted via: fre:ac v1.0.17
# 
DISCID=310e5204
DTITLE=Dark Adventure Radio Theatre - A Solstice Carol [CD 1)
DYEAR=2015
DGENRE=Drama
TTITLE0=Opening
TTITLE1=Stave One: Farley's Ghost
TTITLE2=Stave Two: The Festival of Solstice Past
TTITLE3=Stave Three: The Ghouls of Solstice Present
EXTD=
EXTT0=
EXTT1=
EXTT2=
EXTT3=
PLAYORDER=
